<svg xmlns="http://www.w3.org/2000/svg" viewBox="0 0 96 112" role="img" aria-labelledby="title desc">
  <title id="title">ACE spade mark</title>
  <desc id="desc">A subtle silver spade symbol used as a premium brand accent.</desc>
  <defs>
    <linearGradient id="silver" x1="14" y1="8" x2="86" y2="104" gradientUnits="userSpaceOnUse">
      <stop offset="0" stop-color="#ffffff"/>
      <stop offset="0.34" stop-color="#c8cbd0"/>
      <stop offset="0.66" stop-color="#f4f5f6"/>
      <stop offset="1" stop-color="#8b9097"/>
    </linearGradient>
  </defs>
  <path fill="url(#silver)" d="M49.4 4.7c-.8-.9-2.1-.9-2.9 0C30.2 23.1 13.6 38.5 13.6 58.1c0 13.9 10.2 23.4 23.1 23.4 5.3 0 9.2-1.8 12-4.2-1.2 8.8-5.7 15.8-13.1 20.8-.9.6-.5 2.1.6 2.1h38.1c1.1 0 1.5-1.5.6-2.1-7.4-5-11.9-12-13.1-20.8 2.8 2.4 6.7 4.2 12 4.2 12.9 0 23.1-9.5 23.1-23.4 0-19.6-16.6-35-33-53.4z"/>
  <path fill="rgba(8,8,8,.42)" d="M48 15.3C33.3 32.2 22.4 44 22.4 58.1c0 8.5 5.7 14.8 14.3 14.8 7 0 10.2-4.5 11.1-6 .5-.8 1.7-.7 2 .2 2.6 11.4.2 21-6.1 28h18.6c-6.3-7-8.7-16.6-6.1-28 .3-.9 1.5-1 2-.2.9 1.5 4.1 6 11.1 6 8.6 0 14.3-6.3 14.3-14.8C83.6 44 72.7 32.2 48 15.3z" opacity=".18"/>
</svg>
